<svg xmlns="http://www.w3.org/2000/svg" xmlns:xlink="http://www.w3.org/1999/xlink" width="500" zoomAndPan="magnify" viewBox="0 0 375 374.999991" height="500" preserveAspectRatio="xMidYMid meet" version="1.0"><defs><g/><clipPath id="10aa3fac9a"><path d="M 26.367188 0 L 348.632812 0 L 348.632812 375 L 26.367188 375 Z M 26.367188 0 " clip-rule="nonzero"/></clipPath><clipPath id="bf1c1dcafb"><path d="M 187.5 375 L 26.367188 281.25 L 26.367188 93.75 L 187.5 0 L 348.632812 93.75 L 348.632812 281.25 Z M 187.5 375 " clip-rule="nonzero"/></clipPath><clipPath id="78573416cf"><path d="M 26.367188 187.5 L 348.859375 187.5 L 348.859375 282.175781 L 26.367188 282.175781 Z M 26.367188 187.5 " clip-rule="nonzero"/></clipPath><clipPath id="daed8c3a80"><path d="M 187.5 187.5 L 348.632812 282.175781 L 26.367188 282.175781 Z M 187.5 187.5 " clip-rule="nonzero"/></clipPath><clipPath id="67056110b6"><path d="M 187.496094 93 L 348.628906 93 L 348.628906 282.171875 L 187.496094 282.171875 Z M 187.496094 93 " clip-rule="nonzero"/></clipPath><clipPath id="9d9930dd09"><path d="M 187.496094 187.710938 L 348.628906 93.246094 L 348.628906 282.171875 Z M 187.496094 187.710938 " clip-rule="nonzero"/></clipPath><clipPath id="0f5a60d6d8"><path d="M 295 133 L 337.71875 133 L 337.71875 163 L 295 163 Z M 295 133 " clip-rule="nonzero"/></clipPath><clipPath id="607da60df7"><path d="M 289 114.558594 L 319 114.558594 L 319 156 L 289 156 Z M 289 114.558594 " clip-rule="nonzero"/></clipPath><clipPath id="0e72232855"><path d="M 25.242188 280.320312 L 349.585938 280.320312 L 349.585938 375 L 25.242188 375 Z M 25.242188 280.320312 " clip-rule="nonzero"/></clipPath><clipPath id="44b98fbed0"><path d="M 187.492188 375 L 25.402344 280.320312 L 349.585938 280.320312 Z M 187.492188 375 " clip-rule="nonzero"/></clipPath></defs><g clip-path="url(#10aa3fac9a)"><g clip-path="url(#bf1c1dcafb)"><path fill="#99cc34" d="M 348.632812 0 L 348.632812 375.136719 L 26.367188 375.136719 L 26.367188 0 Z M 348.632812 0 " fill-opacity="1" fill-rule="nonzero"/></g></g><g clip-path="url(#78573416cf)"><g clip-path="url(#daed8c3a80)"><path fill="#7ab407" d="M 26.367188 187.5 L 348.488281 187.5 L 348.488281 282.175781 L 26.367188 282.175781 Z M 26.367188 187.5 " fill-opacity="1" fill-rule="nonzero"/></g></g><g clip-path="url(#67056110b6)"><g clip-path="url(#9d9930dd09)"><path fill="#90c130" d="M 187.496094 282.171875 L 187.496094 93.34375 L 348.628906 93.34375 L 348.628906 282.171875 Z M 187.496094 282.171875 " fill-opacity="1" fill-rule="nonzero"/></g></g><g clip-path="url(#0f5a60d6d8)"><path fill="#7ab407" d="M 333.617188 134.242188 L 336.800781 139.179688 C 337.5 140.253906 337.285156 141.679688 336.300781 142.5 C 330.660156 147.226562 312.117188 161.804688 297.449219 162.386719 L 295.820312 156.628906 C 295.820312 156.628906 317.023438 148.300781 329.5625 133.957031 C 330.679688 132.683594 332.699219 132.816406 333.617188 134.242188 " fill-opacity="1" fill-rule="nonzero"/></g><g clip-path="url(#607da60df7)"><path fill="#7ab407" d="M 317.390625 118.855469 L 313.578125 115.507812 C 312.527344 114.582031 310.929688 114.683594 310 115.726562 C 304.90625 121.449219 290.089844 139.238281 289.039062 153.695312 L 294.738281 155.511719 C 294.738281 155.511719 302.527344 134.714844 317.316406 122.730469 C 318.539062 121.742188 318.574219 119.890625 317.390625 118.855469 " fill-opacity="1" fill-rule="nonzero"/></g><path fill="#99cc34" d="M 306.492188 119.785156 L 303.214844 118.078125 C 302.035156 117.464844 300.582031 117.863281 299.882812 118.996094 C 296.351562 124.722656 286.949219 141.550781 290.722656 152.925781 L 294.390625 155.152344 C 294.390625 155.152344 298.835938 134.453125 307.339844 123.605469 C 308.320312 122.355469 307.898438 120.519531 306.492188 119.785156 " fill-opacity="1" fill-rule="nonzero"/><path fill="#99cc34" d="M 331.566406 145.695312 L 333.164062 149.027344 C 333.738281 150.226562 333.292969 151.667969 332.136719 152.328125 C 326.300781 155.667969 309.167969 164.511719 297.925781 160.367188 L 295.820312 156.628906 C 295.820312 156.628906 316.65625 152.867188 327.777344 144.722656 C 329.058594 143.785156 330.878906 144.265625 331.566406 145.695312 " fill-opacity="1" fill-rule="nonzero"/><path fill="#99cc34" d="M 329.214844 120.019531 L 332.617188 123.535156 C 333.558594 124.507812 333.574219 126.046875 332.644531 127.035156 C 327.085938 132.960938 308.765625 151.945312 298.382812 156.277344 L 294.816406 152.589844 C 294.816406 152.589844 313.527344 129.050781 325.847656 119.765625 C 326.878906 118.988281 328.320312 119.09375 329.214844 120.019531 " fill-opacity="1" fill-rule="nonzero"/><path fill="#f2ebd9" d="M 290.058594 199.671875 C 224.375 260.347656 221.960938 234.921875 198.507812 250.996094 C 197.703125 251.554688 196.722656 250.601562 197.253906 249.78125 C 207.527344 233.847656 201.871094 225.757812 212.632812 206.46875 C 213.164062 205.523438 213.726562 204.546875 214.339844 203.542969 C 220.703125 193.105469 231.769531 179.496094 251.851562 160.1875 C 273.292969 139.570312 289.5625 140.808594 300.113281 151.710938 C 310.664062 162.613281 311.910156 179.484375 290.058594 199.671875 " fill-opacity="1" fill-rule="nonzero"/><path fill="#e9dcbd" d="M 307.460938 168.660156 C 302.417969 176.296875 296.21875 183.808594 288.953125 190.839844 C 261.5625 217.34375 227.851562 228.535156 206.929688 219.8125 C 203.75 230.601562 204.800781 238.078125 197.25 249.78125 C 196.722656 250.601562 197.703125 251.550781 198.507812 251 C 221.957031 234.917969 224.375 260.347656 290.058594 199.667969 C 302.613281 188.070312 307.542969 177.566406 307.460938 168.660156 " fill-opacity="1" fill-rule="nonzero"/><path fill="#e9dcbd" d="M 300.824219 184.664062 C 299.863281 185.59375 294.40625 181.519531 288.636719 175.558594 C 282.871094 169.597656 278.976562 164.011719 279.9375 163.078125 C 280.902344 162.148438 286.355469 166.226562 292.125 172.183594 C 297.894531 178.144531 301.785156 183.730469 300.824219 184.664062 " fill-opacity="1" fill-rule="nonzero"/><path fill="#e9dcbd" d="M 255.234375 181.125 C 254.363281 181.96875 251.453125 180.378906 248.738281 177.570312 C 246.023438 174.765625 244.527344 171.804688 245.398438 170.960938 C 246.269531 170.117188 249.179688 171.707031 251.894531 174.515625 C 254.609375 177.320312 256.105469 180.28125 255.234375 181.125 " fill-opacity="1" fill-rule="nonzero"/><path fill="#e9dcbd" d="M 248.527344 209.726562 C 247.878906 210.355469 245.710938 209.167969 243.6875 207.078125 C 241.664062 204.984375 240.546875 202.78125 241.199219 202.152344 C 241.847656 201.527344 244.011719 202.710938 246.035156 204.804688 C 248.0625 206.894531 249.175781 209.097656 248.527344 209.726562 " fill-opacity="1" fill-rule="nonzero"/><path fill="#e9dcbd" d="M 220.722656 212.484375 C 220.074219 213.109375 216.457031 210.417969 212.640625 206.476562 C 212.636719 206.472656 212.636719 206.472656 212.632812 206.46875 C 213.164062 205.523438 213.726562 204.546875 214.339844 203.542969 C 214.554688 203.757812 214.773438 203.980469 214.992188 204.203125 C 218.804688 208.144531 221.375 211.855469 220.722656 212.484375 " fill-opacity="1" fill-rule="nonzero"/><g clip-path="url(#0e72232855)"><g clip-path="url(#44b98fbed0)"><path fill="#7ab407" d="M 349.585938 375 L 25.242188 375 L 25.242188 280.320312 L 349.585938 280.320312 Z M 349.585938 375 " fill-opacity="1" fill-rule="nonzero"/></g></g><g fill="#f2ebd9" fill-opacity="1"><g transform="translate(32.578127, 258.374978)"><g><path d="M 6.703125 -71.5625 C 6.703125 -85.65625 9.75 -98.222656 15.84375 -109.265625 C 21.945312 -120.316406 30.453125 -128.925781 41.359375 -135.09375 C 52.273438 -141.257812 64.644531 -144.34375 78.46875 -144.34375 C 95.414062 -144.34375 109.921875 -139.867188 121.984375 -130.921875 C 134.046875 -121.972656 142.109375 -109.773438 146.171875 -94.328125 L 107.953125 -94.328125 C 105.109375 -100.296875 101.078125 -104.835938 95.859375 -107.953125 C 90.640625 -111.066406 84.707031 -112.625 78.0625 -112.625 C 67.351562 -112.625 58.675781 -108.894531 52.03125 -101.4375 C 45.394531 -93.988281 42.078125 -84.03125 42.078125 -71.5625 C 42.078125 -59.09375 45.394531 -49.128906 52.03125 -41.671875 C 58.675781 -34.222656 67.351562 -30.5 78.0625 -30.5 C 84.707031 -30.5 90.640625 -32.054688 95.859375 -35.171875 C 101.078125 -38.285156 105.109375 -42.828125 107.953125 -48.796875 L 146.171875 -48.796875 C 142.109375 -33.335938 134.046875 -21.171875 121.984375 -12.296875 C 109.921875 -3.421875 95.414062 1.015625 78.46875 1.015625 C 64.644531 1.015625 52.273438 -2.066406 41.359375 -8.234375 C 30.453125 -14.398438 21.945312 -22.972656 15.84375 -33.953125 C 9.75 -44.929688 6.703125 -57.46875 6.703125 -71.5625 Z M 6.703125 -71.5625 "/></g></g></g></svg>