<svg xmlns="http://www.w3.org/2000/svg" xmlns:xlink="http://www.w3.org/1999/xlink" width="500" zoomAndPan="magnify" viewBox="0 0 375 374.999991" height="500" preserveAspectRatio="xMidYMid meet" version="1.2"><defs><clipPath id="fc0ea98732"><path d="M 26.367188 0 L 348.632812 0 L 348.632812 375 L 26.367188 375 Z M 26.367188 0 "/></clipPath><clipPath id="958205bc9a"><path d="M 187.5 375 L 26.367188 281.25 L 26.367188 93.75 L 187.5 0 L 348.632812 93.75 L 348.632812 281.25 Z M 187.5 375 "/></clipPath><clipPath id="f37c9afa81"><path d="M 26.367188 187.5 L 348.859375 187.5 L 348.859375 282.175781 L 26.367188 282.175781 Z M 26.367188 187.5 "/></clipPath><clipPath id="cc728298e8"><path d="M 187.5 187.5 L 348.632812 282.175781 L 26.367188 282.175781 Z M 187.5 187.5 "/></clipPath><clipPath id="33b2a30743"><path d="M 187.496094 93 L 348.628906 93 L 348.628906 282.171875 L 187.496094 282.171875 Z M 187.496094 93 "/></clipPath><clipPath id="524b2719f7"><path d="M 187.496094 187.710938 L 348.628906 93.246094 L 348.628906 282.171875 Z M 187.496094 187.710938 "/></clipPath><clipPath id="a7b824bd93"><path d="M 25.242188 280.320312 L 349.585938 280.320312 L 349.585938 375 L 25.242188 375 Z M 25.242188 280.320312 "/></clipPath><clipPath id="4a98209c1c"><path d="M 187.492188 375 L 25.402344 280.320312 L 349.585938 280.320312 Z M 187.492188 375 "/></clipPath><clipPath id="7c01cc244b"><path d="M 226 94.175781 L 313.566406 94.175781 L 313.566406 280.925781 L 226 280.925781 Z M 226 94.175781 "/></clipPath><clipPath id="a9bb845d97"><path d="M 243 94.175781 L 313.566406 94.175781 L 313.566406 155 L 243 155 Z M 243 94.175781 "/></clipPath><clipPath id="38dbfddfb6"><path d="M 243 94.175781 L 269 94.175781 L 269 147 L 243 147 Z M 243 94.175781 "/></clipPath><clipPath id="8a4b68bef7"><path d="M 285 109 L 313.566406 109 L 313.566406 149 L 285 149 Z M 285 109 "/></clipPath><clipPath id="4f9c5442a6"><path d="M 226 139 L 295 139 L 295 280.925781 L 226 280.925781 Z M 226 139 "/></clipPath></defs><g id="d60cfe4505"><g clip-rule="nonzero" clip-path="url(#fc0ea98732)"><g clip-rule="nonzero" clip-path="url(#958205bc9a)"><path style=" stroke:none;fill-rule:nonzero;fill:#99cc34;fill-opacity:1;" d="M 348.632812 0 L 348.632812 375.136719 L 26.367188 375.136719 L 26.367188 0 Z M 348.632812 0 "/></g></g><g clip-rule="nonzero" clip-path="url(#f37c9afa81)"><g clip-rule="nonzero" clip-path="url(#cc728298e8)"><path style=" stroke:none;fill-rule:nonzero;fill:#7ab407;fill-opacity:1;" d="M 26.367188 187.5 L 348.488281 187.5 L 348.488281 282.175781 L 26.367188 282.175781 Z M 26.367188 187.5 "/></g></g><g clip-rule="nonzero" clip-path="url(#33b2a30743)"><g clip-rule="nonzero" clip-path="url(#524b2719f7)"><path style=" stroke:none;fill-rule:nonzero;fill:#90c130;fill-opacity:1;" d="M 187.496094 282.171875 L 187.496094 93.34375 L 348.628906 93.34375 L 348.628906 282.171875 Z M 187.496094 282.171875 "/></g></g><g clip-rule="nonzero" clip-path="url(#a7b824bd93)"><g clip-rule="nonzero" clip-path="url(#4a98209c1c)"><path style=" stroke:none;fill-rule:nonzero;fill:#7ab407;fill-opacity:1;" d="M 349.585938 375 L 25.242188 375 L 25.242188 280.320312 L 349.585938 280.320312 Z M 349.585938 375 "/></g></g><g clip-rule="nonzero" clip-path="url(#7c01cc244b)"><path style=" stroke:none;fill-rule:nonzero;fill:#f2ebd9;fill-opacity:1;" d="M 261.828125 94.175781 C 261.519531 94.367188 261.210938 94.558594 260.902344 94.761719 C 259.855469 95.457031 258.847656 96.210938 257.886719 97.015625 C 257.3125 97.492188 256.75 97.996094 256.199219 98.511719 C 253.648438 100.914062 251.507812 103.59375 249.773438 106.390625 C 243.308594 117.058594 243.042969 128.40625 243.984375 135.648438 C 244.425781 139.046875 245.109375 141.679688 245.792969 143.574219 C 243.617188 144.691406 242.15625 146.464844 241.179688 148.125 C 239.324219 151.023438 238.058594 154.144531 237.019531 157.140625 C 233.605469 166.886719 231.847656 177.023438 230.53125 186.117188 C 224.769531 225.878906 226.832031 255.859375 227.953125 268.230469 C 227.953125 270.082031 228.628906 273.5 228.625 275.347656 C 229.699219 277.550781 231.117188 277.726562 233.613281 277.992188 C 234.152344 278.160156 234.78125 278.335938 235.605469 278.542969 C 237.550781 279.03125 240.542969 279.683594 244.125 280.179688 C 246.890625 280.566406 250.488281 280.945312 254.253906 280.785156 C 256.816406 280.699219 260.03125 280.378906 262.851562 278.695312 C 263.859375 278.027344 264.496094 277.152344 264.980469 276.390625 C 265.863281 275.109375 266.609375 273.765625 267.339844 272.363281 C 269.394531 268.414062 271.152344 264.296875 273 259.648438 C 277.410156 248.585938 281.53125 236.28125 285.480469 222.058594 C 288.902344 209.761719 292.308594 195.8125 294.0625 181.347656 C 294.714844 175.992188 295.167969 170.375 294.863281 164.679688 C 294.707031 160.835938 294.179688 156.558594 292.003906 152.710938 C 291.152344 151.292969 290.152344 149.992188 289.042969 148.796875 C 291.441406 149.164062 299.917969 136.492188 309.515625 119.746094 C 310.757812 117.582031 311.980469 115.425781 313.125 113.402344 C 309.484375 112.089844 306.117188 110.941406 302.96875 110 C 297.039062 110.320312 292.863281 111.992188 290.085938 113.796875 C 290.960938 110.199219 291.84375 106.464844 292.734375 102.503906 C 293.085938 100.941406 293.433594 99.390625 293.769531 97.878906 C 289.117188 97.898438 284.789062 97.949219 280.699219 98.113281 C 274.070312 101.050781 269.6875 105.65625 267.0625 109.542969 C 266.5 105.105469 265.730469 100.320312 264.667969 95.394531 C 264.0625 94.761719 263.101562 94.34375 261.828125 94.175781 Z M 261.828125 94.175781 "/></g><g clip-rule="nonzero" clip-path="url(#a9bb845d97)"><path style=" stroke:none;fill-rule:nonzero;fill:#7ab407;fill-opacity:1;" d="M 261.828125 94.175781 C 261.519531 94.367188 261.210938 94.558594 260.902344 94.761719 C 259.855469 95.457031 258.847656 96.210938 257.886719 97.015625 C 257.3125 97.492188 256.75 97.996094 256.199219 98.511719 C 253.648438 100.914062 251.507812 103.59375 249.773438 106.390625 C 243.308594 117.058594 243.042969 128.40625 243.984375 135.648438 C 244.425781 139.03125 245.101562 141.644531 245.78125 143.535156 C 262.875 139.8125 282.632812 142.347656 290.613281 152.84375 C 291.269531 153.707031 292.027344 154.242188 292.875 154.488281 C 292.613281 153.890625 292.335938 153.296875 292.007812 152.714844 C 291.15625 151.296875 290.152344 149.992188 289.046875 148.792969 C 291.441406 149.164062 299.917969 136.492188 309.519531 119.746094 C 310.761719 117.582031 311.984375 115.425781 313.128906 113.402344 C 309.484375 112.089844 306.121094 110.941406 302.972656 109.996094 C 297.042969 110.320312 292.867188 111.992188 290.085938 113.800781 C 290.960938 110.203125 291.847656 106.464844 292.734375 102.503906 C 293.089844 100.941406 293.4375 99.390625 293.769531 97.882812 C 289.121094 97.894531 284.792969 97.953125 280.703125 98.113281 C 274.070312 101.050781 269.6875 105.652344 267.0625 109.542969 C 266.5 105.105469 265.730469 100.320312 264.667969 95.394531 C 264.0625 94.761719 263.101562 94.34375 261.828125 94.175781 Z M 261.828125 94.175781 "/></g><g clip-rule="nonzero" clip-path="url(#38dbfddfb6)"><path style=" stroke:none;fill-rule:nonzero;fill:#7ab407;fill-opacity:1;" d="M 263.167969 101.875 C 262.359375 102.429688 263.238281 101.800781 262.457031 102.460938 C 261.988281 102.855469 261.53125 103.261719 261.078125 103.691406 C 258.984375 105.660156 257.179688 107.859375 255.660156 110.152344 C 249.941406 118.578125 248.851562 128.691406 248.578125 135.429688 C 248.289062 142.460938 248.78125 146.769531 247.828125 146.976562 C 247.128906 147.132812 244.960938 143.171875 243.984375 135.648438 C 243.042969 128.402344 243.304688 117.058594 249.773438 106.390625 C 251.503906 103.59375 253.652344 100.914062 256.199219 98.507812 C 256.75 97.992188 257.3125 97.492188 257.886719 97.015625 C 258.847656 96.210938 259.851562 95.457031 260.902344 94.761719 C 261.210938 94.558594 261.515625 94.367188 261.828125 94.175781 C 263.101562 94.34375 264.0625 94.761719 264.671875 95.394531 C 266.675781 104.707031 267.667969 113.570312 268.089844 120.382812 C 267.746094 131.730469 268.117188 139.167969 267.257812 139.371094 C 265.960938 139.667969 263.414062 132.410156 262.476562 120.519531 C 262.585938 114.121094 263.0625 109.917969 263.167969 101.875 "/></g><path style=" stroke:none;fill-rule:nonzero;fill:#7ab407;fill-opacity:1;" d="M 263.664062 119.246094 C 263.074219 118.976562 263.296875 116.082031 265.714844 111.726562 C 268.050781 107.519531 272.257812 100.078125 280.699219 98.113281 C 284.683594 97.1875 289.117188 97.894531 293.769531 97.878906 C 293.433594 99.390625 293.089844 100.941406 292.734375 102.503906 C 287.433594 126.085938 282.214844 144.351562 279.832031 143.679688 C 277.414062 142.996094 282.417969 125.316406 289.589844 104.566406 C 290.078125 103.152344 290.566406 101.746094 291.050781 100.367188 C 288.085938 101.855469 285.324219 103.199219 282.5625 104.390625 C 270.011719 108.726562 265.019531 119.867188 263.664062 119.246094 Z M 263.664062 119.246094 "/><g clip-rule="nonzero" clip-path="url(#8a4b68bef7)"><path style=" stroke:none;fill-rule:nonzero;fill:#7ab407;fill-opacity:1;" d="M 285.59375 118.839844 C 285.132812 118.25 289.726562 108.425781 302.96875 110 C 306.234375 110.386719 309.488281 112.089844 313.128906 113.402344 C 311.984375 115.425781 310.757812 117.582031 309.515625 119.746094 C 299.582031 137.070312 290.847656 150.042969 288.816406 148.710938 C 286.75 147.355469 294.914062 134.699219 305.691406 120.382812 C 307.070312 118.542969 308.484375 116.683594 309.808594 114.9375 C 307.277344 115.515625 304.925781 115.984375 302.628906 116.28125 C 292.910156 115.84375 286.441406 119.921875 285.59375 118.839844 Z M 285.59375 118.839844 "/></g><g clip-rule="nonzero" clip-path="url(#4f9c5442a6)"><path style=" stroke:none;fill-rule:nonzero;fill:#f2ebd9;fill-opacity:1;" d="M 228.445312 274.480469 C 229.011719 274.457031 222.886719 238.84375 230.53125 186.117188 C 231.847656 177.023438 233.605469 166.882812 237.015625 157.140625 C 238.058594 154.144531 239.324219 151.023438 241.179688 148.125 C 242.25 146.300781 243.894531 144.332031 246.4375 143.257812 C 253.949219 140.414062 262.382812 138.984375 270.851562 139.980469 C 275.5625 140.519531 280.300781 142.113281 284.363281 144.8125 C 287.441406 146.863281 290.078125 149.503906 292.007812 152.710938 C 294.183594 156.558594 294.707031 160.835938 294.863281 164.679688 C 295.167969 170.375 294.714844 175.992188 294.0625 181.347656 C 292.308594 195.8125 288.902344 209.761719 285.480469 222.054688 L 285.480469 222.058594 C 281.53125 236.28125 277.410156 248.582031 273.003906 259.648438 C 271.15625 264.296875 269.394531 268.417969 267.339844 272.363281 C 266.609375 273.765625 265.863281 275.109375 264.980469 276.390625 C 264.496094 277.152344 263.859375 278.027344 262.851562 278.695312 C 260.03125 280.378906 256.816406 280.699219 254.253906 280.785156 C 250.488281 280.945312 246.890625 280.566406 244.125 280.179688 C 240.542969 279.683594 237.550781 279.03125 235.605469 278.542969 C 234.464844 278.253906 233.589844 278.003906 232.992188 277.800781 C 232.679688 277.695312 232.441406 277.601562 232.28125 277.527344 C 232.207031 277.453125 232.152344 277.414062 232.113281 277.386719 C 232.070312 277.363281 232.046875 277.351562 232.042969 277.351562 C 232.046875 277.351562 232.070312 277.359375 232.121094 277.351562 C 232.167969 277.351562 232.238281 277.339844 232.335938 277.300781 C 232.507812 277.304688 232.765625 277.328125 233.089844 277.363281 C 233.710938 277.429688 234.609375 277.550781 235.765625 277.710938 C 237.671875 277.964844 240.816406 278.390625 244.292969 278.664062 C 247.027344 278.882812 250.574219 279.074219 254.128906 278.773438 C 256.585938 278.542969 259.496094 278.175781 261.601562 276.730469 C 262.082031 276.453125 262.441406 275.804688 262.972656 275.050781 C 263.730469 273.871094 264.382812 272.597656 265.054688 271.214844 C 266.945312 267.320312 268.550781 263.257812 270.285156 258.597656 C 274.402344 247.519531 278.253906 235.304688 282.007812 221.113281 C 285.242188 208.863281 288.492188 195.035156 290.121094 180.882812 C 290.726562 175.628906 291.148438 170.230469 290.832031 164.902344 C 290.570312 161.226562 290.210938 157.546875 288.503906 154.769531 C 286.992188 152.113281 284.78125 149.914062 282.140625 148.191406 C 278.65625 145.921875 274.5 144.539062 270.371094 144.007812 C 262.683594 143.066406 254.867188 144.386719 247.832031 146.972656 C 246.59375 147.308594 245.578125 148.753906 244.484375 150.269531 C 242.863281 152.722656 241.710938 155.566406 240.664062 158.433594 C 237.308594 167.738281 235.492188 177.652344 234.0625 186.648438 C 225.847656 238.371094 229.214844 274.445312 228.445312 274.480469 Z M 228.445312 274.480469 "/></g><path style=" stroke:none;fill-rule:nonzero;fill:#f2ebd9;fill-opacity:1;" d="M 237.804688 159.71875 C 237.6875 159.054688 242.328125 156.863281 249.578125 157.605469 C 251.375 157.789062 253.261719 158.074219 255.230469 158.457031 C 264.6875 160.296875 271.8125 163.421875 271.601562 164.296875 C 271.300781 165.535156 263.667969 164.109375 254.476562 162.316406 C 252.507812 161.933594 250.824219 161.609375 249.054688 161.285156 C 242.8125 160.117188 237.953125 160.566406 237.804688 159.71875 Z M 237.804688 159.71875 "/><path style=" stroke:none;fill-rule:nonzero;fill:#f2ebd9;fill-opacity:1;" d="M 251.527344 177.507812 C 251.753906 176.757812 260.359375 175.863281 270.738281 179.023438 C 281.117188 182.179688 289.359375 188.195312 289.128906 188.941406 C 288.902344 189.691406 280.296875 184.890625 269.917969 181.734375 C 259.539062 178.582031 251.296875 178.257812 251.527344 177.507812 Z M 251.527344 177.507812 "/><path style=" stroke:none;fill-rule:nonzero;fill:#f2ebd9;fill-opacity:1;" d="M 235.773438 197.328125 C 235.753906 196.878906 241.886719 194.90625 250.550781 196.929688 C 252.132812 197.300781 253.753906 197.75 255.425781 198.277344 C 265.832031 201.5625 273.371094 206.09375 273.125 206.726562 C 272.675781 207.878906 264.476562 204.769531 254.382812 201.582031 C 252.757812 201.066406 251.21875 200.601562 249.707031 200.167969 C 242.097656 197.960938 235.804688 198.132812 235.773438 197.328125 Z M 235.773438 197.328125 "/><path style=" stroke:none;fill-rule:nonzero;fill:#f2ebd9;fill-opacity:1;" d="M 227.898438 212.570312 C 228.097656 211.648438 233.726562 212.097656 240.460938 213.570312 C 247.1875 215.042969 252.488281 216.984375 252.285156 217.910156 C 252.085938 218.832031 246.457031 218.382812 239.722656 216.910156 C 232.996094 215.4375 227.695312 213.492188 227.898438 212.570312 Z M 227.898438 212.570312 "/><path style=" stroke:none;fill-rule:nonzero;fill:#f2ebd9;fill-opacity:1;" d="M 246.773438 238.1875 C 247.027344 237.328125 253.828125 238.558594 261.960938 240.945312 C 270.09375 243.324219 276.492188 245.953125 276.238281 246.808594 C 275.984375 247.667969 269.183594 246.433594 261.050781 244.050781 C 252.917969 241.675781 246.519531 239.042969 246.773438 238.1875 Z M 246.773438 238.1875 "/><path style=" stroke:none;fill-rule:nonzero;fill:#f2ebd9;fill-opacity:1;" d="M 233.839844 258.308594 C 234.101562 257.210938 238.015625 257.210938 242.574219 258.300781 C 247.140625 259.390625 250.628906 261.167969 250.367188 262.261719 C 250.105469 263.359375 246.191406 263.359375 241.625 262.269531 C 237.066406 261.179688 233.574219 259.40625 233.839844 258.308594 Z M 233.839844 258.308594 "/><g style="fill:#f2ebd9;fill-opacity:1;"><g transform="translate(32.578127, 258.374978)"><path style="stroke:none" d="M 6.703125 -71.5625 C 6.703125 -85.65625 9.75 -98.222656 15.84375 -109.265625 C 21.945312 -120.316406 30.453125 -128.925781 41.359375 -135.09375 C 52.273438 -141.257812 64.644531 -144.34375 78.46875 -144.34375 C 95.414062 -144.34375 109.921875 -139.867188 121.984375 -130.921875 C 134.046875 -121.972656 142.109375 -109.773438 146.171875 -94.328125 L 107.953125 -94.328125 C 105.109375 -100.296875 101.078125 -104.835938 95.859375 -107.953125 C 90.640625 -111.066406 84.707031 -112.625 78.0625 -112.625 C 67.351562 -112.625 58.675781 -108.894531 52.03125 -101.4375 C 45.394531 -93.988281 42.078125 -84.03125 42.078125 -71.5625 C 42.078125 -59.09375 45.394531 -49.128906 52.03125 -41.671875 C 58.675781 -34.222656 67.351562 -30.5 78.0625 -30.5 C 84.707031 -30.5 90.640625 -32.054688 95.859375 -35.171875 C 101.078125 -38.285156 105.109375 -42.828125 107.953125 -48.796875 L 146.171875 -48.796875 C 142.109375 -33.335938 134.046875 -21.171875 121.984375 -12.296875 C 109.921875 -3.421875 95.414062 1.015625 78.46875 1.015625 C 64.644531 1.015625 52.273438 -2.066406 41.359375 -8.234375 C 30.453125 -14.398438 21.945312 -22.972656 15.84375 -33.953125 C 9.75 -44.929688 6.703125 -57.46875 6.703125 -71.5625 Z M 6.703125 -71.5625 "/></g></g></g></svg>